<svg width="732" height="735" viewBox="0 0 732 735" fill="none" xmlns="http://www.w3.org/2000/svg">
<circle cx="370.356" cy="373.356" r="360.856" fill="#FFCA0F" fill-opacity="0.53" stroke="#242424"/>
<circle cx="369.939" cy="373.772" r="324.304" fill="#131F37"/>
<mask id="mask0_610_2" style="mask-type:alpha" maskUnits="userSpaceOnUse" x="45" y="49" width="650" height="650">
<circle cx="369.939" cy="373.772" r="324.304" fill="#C4C4C4"/>
</mask>
<g mask="url(#mask0_610_2)">
<path d="M47.7627 517.171L63.3871 515.53C79.0114 513.888 110.26 510.604 141.364 497.798C172.54 485.101 203.498 462.773 234.674 467.151C265.777 471.529 297.026 502.614 328.129 514.763C359.305 527.022 390.263 520.455 421.439 508.634C452.543 496.704 483.791 479.629 514.895 467.042C546.071 454.454 577.029 446.355 608.205 442.743C639.308 439.131 670.557 439.788 686.181 440.225L701.806 440.554V712H686.181C670.557 712 639.308 712 608.205 712C577.029 712 546.071 712 514.895 712C483.791 712 452.543 712 421.439 712C390.263 712 359.305 712 328.129 712C297.026 712 265.777 712 234.674 712C203.498 712 172.54 712 141.364 712C110.26 712 79.0114 712 63.3871 712H47.7627V517.171Z" fill="#4D345E"/>
<path d="M47.7627 540.157L63.3871 537.202C79.0114 534.356 110.26 528.446 141.364 524.615C172.54 520.784 203.498 519.033 234.674 524.615C265.777 530.306 297.026 543.441 328.129 543.769C359.305 544.207 390.263 531.729 421.439 529.54C452.543 527.351 483.791 535.451 514.895 536.545C546.071 537.64 577.029 531.729 608.205 531.729C639.308 531.729 670.557 537.64 686.181 540.486L701.806 543.441V712H686.181C670.557 712 639.308 712 608.205 712C577.029 712 546.071 712 514.895 712C483.791 712 452.543 712 421.439 712C390.263 712 359.305 712 328.129 712C297.026 712 265.777 712 234.674 712C203.498 712 172.54 712 141.364 712C110.26 712 79.0114 712 63.3871 712H47.7627V540.157Z" fill="#96446E"/>
<path d="M47.7627 588.317L63.3871 583.72C79.0114 579.232 110.26 570.038 141.364 571.023C172.54 571.899 203.498 582.844 234.674 583.391C265.777 583.939 297.026 574.088 328.129 566.098C359.305 557.998 390.263 551.869 421.439 556.794C452.543 561.72 483.791 577.7 514.895 579.013C546.071 580.327 577.029 566.754 608.205 569.71C639.308 572.665 670.557 591.929 686.181 601.67L701.806 611.302V712H686.181C670.557 712 639.308 712 608.205 712C577.029 712 546.071 712 514.895 712C483.791 712 452.543 712 421.439 712C390.263 712 359.305 712 328.129 712C297.026 712 265.777 712 234.674 712C203.498 712 172.54 712 141.364 712C110.26 712 79.0114 712 63.3871 712H47.7627V588.317Z" fill="#D55E64"/>
<path d="M47.7627 631.004L63.3871 624.984C79.0114 618.964 110.26 606.924 141.364 609.66C172.54 612.397 203.498 629.909 234.674 636.477C265.777 643.044 297.026 638.666 328.129 637.352C359.305 636.148 390.263 637.899 421.439 635.929C452.543 633.959 483.791 628.049 514.895 623.123C546.071 618.198 577.029 614.257 608.205 617.869C639.308 621.481 670.557 632.865 686.181 638.447L701.806 644.138V712H686.181C670.557 712 639.308 712 608.205 712C577.029 712 546.071 712 514.895 712C483.791 712 452.543 712 421.439 712C390.263 712 359.305 712 328.129 712C297.026 712 265.777 712 234.674 712C203.498 712 172.54 712 141.364 712C110.26 712 79.0114 712 63.3871 712H47.7627V631.004Z" fill="#F88F4A"/>
</g>
<path d="M276.698 272.381C275.975 264.434 272.76 258.257 267.053 253.85C261.418 249.371 253.363 247.131 242.887 247.131C235.952 247.131 230.172 248.034 225.549 249.841C220.925 251.647 217.457 254.139 215.145 257.318C212.834 260.424 211.641 264.001 211.569 268.046C211.425 271.369 212.075 274.295 213.52 276.824C215.037 279.353 217.204 281.592 220.022 283.543C222.912 285.421 226.379 287.083 230.425 288.528C234.471 289.972 239.022 291.237 244.079 292.32L263.152 296.655C274.133 299.039 283.814 302.218 292.194 306.191C300.647 310.165 307.727 314.897 313.434 320.387C319.214 325.878 323.584 332.199 326.547 339.352C329.509 346.504 331.026 354.523 331.098 363.409C331.026 377.425 327.486 389.453 320.478 399.495C313.47 409.537 303.392 417.231 290.244 422.577C277.167 427.924 261.382 430.597 242.887 430.597C224.32 430.597 208.138 427.815 194.339 422.252C180.54 416.69 169.812 408.237 162.154 396.894C154.496 385.552 150.559 371.212 150.342 353.873H201.708C202.141 361.025 204.056 366.985 207.451 371.753C210.847 376.522 215.507 380.134 221.431 382.59C227.427 385.046 234.362 386.275 242.237 386.275C249.462 386.275 255.602 385.299 260.659 383.349C265.789 381.398 269.726 378.689 272.471 375.221C275.217 371.753 276.625 367.78 276.698 363.301C276.625 359.111 275.325 355.534 272.797 352.572C270.268 349.538 266.367 346.937 261.093 344.77C255.891 342.53 249.245 340.471 241.153 338.593L217.963 333.175C198.746 328.768 183.611 321.652 172.557 311.826C161.504 301.929 156.013 288.564 156.085 271.731C156.013 258.004 159.698 245.976 167.139 235.645C174.58 225.314 184.875 217.258 198.023 211.479C211.172 205.699 226.163 202.809 242.996 202.809C260.19 202.809 275.108 205.735 287.751 211.587C300.466 217.367 310.328 225.494 317.335 235.97C324.343 246.445 327.919 258.582 328.064 272.381H276.698ZM389.291 427.779L345.944 261.328H399.152L421.584 367.961H422.993L447.05 261.328H498.958L523.666 367.202H525.075L546.856 261.328H600.065L556.609 427.779H499.934L473.925 330.791H472.083L446.075 427.779H389.291Z" fill="#F4D160"/>
<path d="M174.393 497.254C174.248 495.664 173.605 494.429 172.464 493.547C171.337 492.652 169.726 492.204 167.63 492.204C166.243 492.204 165.087 492.384 164.163 492.746C163.238 493.107 162.544 493.605 162.082 494.241C161.62 494.862 161.381 495.578 161.367 496.387C161.338 497.051 161.468 497.637 161.757 498.142C162.06 498.648 162.494 499.096 163.057 499.486C163.635 499.862 164.329 500.194 165.138 500.483C165.947 500.772 166.857 501.025 167.869 501.242L171.683 502.108C173.88 502.585 175.816 503.221 177.492 504.016C179.182 504.81 180.598 505.757 181.74 506.855C182.896 507.953 183.77 509.217 184.362 510.648C184.955 512.078 185.258 513.682 185.273 515.459C185.258 518.262 184.55 520.668 183.149 522.677C181.747 524.685 179.731 526.224 177.102 527.293C174.486 528.362 171.329 528.897 167.63 528.897C163.917 528.897 160.681 528.34 157.921 527.228C155.161 526.115 153.015 524.425 151.484 522.156C149.952 519.888 149.165 517.02 149.121 513.552H159.395C159.481 514.982 159.864 516.174 160.543 517.128C161.222 518.082 162.154 518.804 163.339 519.295C164.538 519.787 165.926 520.032 167.5 520.032C168.945 520.032 170.173 519.837 171.185 519.447C172.211 519.057 172.998 518.515 173.547 517.822C174.096 517.128 174.378 516.333 174.393 515.438C174.378 514.6 174.118 513.884 173.612 513.292C173.107 512.685 172.326 512.165 171.272 511.731C170.231 511.284 168.902 510.872 167.284 510.496L162.646 509.412C158.802 508.531 155.775 507.108 153.564 505.143C151.354 503.163 150.256 500.49 150.27 497.124C150.256 494.378 150.993 491.973 152.481 489.906C153.969 487.84 156.028 486.229 158.658 485.073C161.287 483.917 164.286 483.339 167.652 483.339C171.091 483.339 174.075 483.924 176.603 485.095C179.146 486.251 181.119 487.876 182.52 489.971C183.922 492.066 184.637 494.494 184.666 497.254H174.393ZM190.691 528.333V495.043H200.769V501.155H201.138C201.831 499.132 203.001 497.535 204.649 496.365C206.296 495.195 208.261 494.609 210.544 494.609C212.856 494.609 214.835 495.202 216.482 496.387C218.129 497.572 219.177 499.161 219.625 501.155H219.972C220.593 499.175 221.807 497.593 223.613 496.408C225.419 495.209 227.55 494.609 230.006 494.609C233.156 494.609 235.714 495.621 237.679 497.644C239.644 499.652 240.626 502.412 240.626 505.923V528.333H230.028V508.35C230.028 506.689 229.602 505.424 228.749 504.558C227.897 503.676 226.792 503.235 225.433 503.235C223.974 503.235 222.825 503.712 221.987 504.666C221.164 505.605 220.752 506.869 220.752 508.459V528.333H210.565V508.242C210.565 506.696 210.146 505.475 209.308 504.579C208.47 503.683 207.365 503.235 205.992 503.235C205.068 503.235 204.251 503.459 203.543 503.907C202.835 504.341 202.279 504.962 201.874 505.771C201.484 506.58 201.289 507.534 201.289 508.632V528.333H190.691ZM256.578 528.897C254.454 528.897 252.568 528.543 250.921 527.835C249.289 527.112 247.995 526.029 247.042 524.584C246.103 523.124 245.633 521.297 245.633 519.1C245.633 517.251 245.958 515.69 246.608 514.419C247.258 513.147 248.154 512.114 249.296 511.32C250.437 510.525 251.752 509.925 253.24 509.521C254.729 509.102 256.318 508.82 258.008 508.675C259.901 508.502 261.426 508.322 262.582 508.134C263.737 507.931 264.575 507.65 265.096 507.288C265.63 506.913 265.898 506.385 265.898 505.706V505.598C265.898 504.485 265.515 503.626 264.749 503.019C263.983 502.412 262.95 502.108 261.65 502.108C260.248 502.108 259.121 502.412 258.269 503.019C257.416 503.626 256.874 504.464 256.643 505.533L246.868 505.186C247.157 503.163 247.901 501.357 249.101 499.768C250.314 498.164 251.976 496.907 254.086 495.997C256.21 495.072 258.76 494.609 261.736 494.609C263.86 494.609 265.818 494.862 267.61 495.368C269.401 495.859 270.962 496.582 272.291 497.535C273.621 498.475 274.646 499.63 275.369 501.003C276.106 502.376 276.474 503.943 276.474 505.706V528.333H266.504V523.695H266.244C265.652 524.822 264.893 525.776 263.969 526.556C263.058 527.336 261.982 527.921 260.739 528.312C259.511 528.702 258.124 528.897 256.578 528.897ZM259.851 521.961C260.992 521.961 262.018 521.73 262.928 521.268C263.853 520.805 264.59 520.17 265.139 519.36C265.688 518.537 265.963 517.583 265.963 516.5V513.335C265.659 513.494 265.291 513.639 264.857 513.769C264.438 513.899 263.976 514.022 263.47 514.137C262.964 514.253 262.444 514.354 261.91 514.441C261.375 514.527 260.862 514.607 260.371 514.679C259.374 514.838 258.521 515.084 257.813 515.416C257.12 515.748 256.585 516.182 256.21 516.716C255.848 517.236 255.668 517.858 255.668 518.58C255.668 519.678 256.058 520.516 256.838 521.094C257.633 521.672 258.637 521.961 259.851 521.961ZM282.955 528.333V495.043H293.249V501.111H293.596C294.203 498.915 295.193 497.283 296.565 496.213C297.938 495.13 299.535 494.588 301.355 494.588C301.846 494.588 302.352 494.624 302.872 494.696C303.393 494.754 303.877 494.848 304.324 494.978V504.189C303.819 504.016 303.154 503.878 302.331 503.777C301.521 503.676 300.799 503.626 300.163 503.626C298.906 503.626 297.772 503.907 296.76 504.471C295.763 505.02 294.976 505.793 294.398 506.79C293.835 507.772 293.553 508.928 293.553 510.258V528.333H282.955ZM328.983 495.043V502.845H307.982V495.043H328.983ZM312.382 487.067H322.98V517.865C322.98 518.515 323.081 519.043 323.283 519.447C323.5 519.837 323.811 520.119 324.215 520.292C324.62 520.451 325.104 520.531 325.667 520.531C326.072 520.531 326.498 520.495 326.946 520.422C327.408 520.336 327.755 520.264 327.986 520.206L329.59 527.856C329.084 528.001 328.369 528.182 327.445 528.398C326.534 528.615 325.443 528.752 324.172 528.81C321.687 528.926 319.555 528.637 317.778 527.943C316.015 527.235 314.664 526.137 313.725 524.649C312.801 523.161 312.353 521.289 312.382 519.035V487.067ZM340.611 528.333L331.942 495.043H342.583L347.07 516.37H347.352L352.163 495.043H362.545L367.486 516.218H367.768L372.124 495.043H382.766L374.075 528.333H362.74L357.538 508.936H357.17L351.968 528.333H340.611ZM401.844 528.962C398.347 528.962 395.342 528.247 392.828 526.816C390.328 525.371 388.399 523.363 387.041 520.791C385.697 518.205 385.025 515.206 385.025 511.796C385.025 508.372 385.697 505.374 387.041 502.802C388.399 500.216 390.328 498.207 392.828 496.777C395.342 495.332 398.347 494.609 401.844 494.609C405.34 494.609 408.339 495.332 410.838 496.777C413.352 498.207 415.281 500.216 416.625 502.802C417.983 505.374 418.662 508.372 418.662 511.796C418.662 515.206 417.983 518.205 416.625 520.791C415.281 523.363 413.352 525.371 410.838 526.816C408.339 528.247 405.34 528.962 401.844 528.962ZM401.909 520.964C403.18 520.964 404.257 520.574 405.138 519.794C406.02 519.014 406.691 517.93 407.154 516.543C407.631 515.156 407.869 513.552 407.869 511.731C407.869 509.882 407.631 508.264 407.154 506.877C406.691 505.49 406.02 504.406 405.138 503.626C404.257 502.845 403.18 502.455 401.909 502.455C400.594 502.455 399.481 502.845 398.571 503.626C397.675 504.406 396.989 505.49 396.512 506.877C396.05 508.264 395.819 509.882 395.819 511.731C395.819 513.552 396.05 515.156 396.512 516.543C396.989 517.93 397.675 519.014 398.571 519.794C399.481 520.574 400.594 520.964 401.909 520.964ZM424.092 528.333V495.043H434.386V501.111H434.733C435.34 498.915 436.33 497.283 437.702 496.213C439.075 495.13 440.672 494.588 442.492 494.588C442.984 494.588 443.489 494.624 444.009 494.696C444.53 494.754 445.014 494.848 445.462 494.978V504.189C444.956 504.016 444.291 503.878 443.468 503.777C442.658 503.676 441.936 503.626 441.3 503.626C440.043 503.626 438.909 503.907 437.897 504.471C436.901 505.02 436.113 505.793 435.535 506.79C434.972 507.772 434.69 508.928 434.69 510.258V528.333H424.092ZM459.338 519.599L459.381 506.963H460.855L470.218 495.043H482.225L468.311 512.122H465.515L459.338 519.599ZM449.78 528.333V483.946H460.378V528.333H449.78ZM470.456 528.333L461.744 514.506L468.722 506.985L482.702 528.333H470.456ZM499.13 528.333V483.946H517.466C520.789 483.946 523.657 484.596 526.07 485.897C528.498 487.183 530.369 488.982 531.684 491.293C532.998 493.591 533.656 496.264 533.656 499.313C533.656 502.376 532.984 505.056 531.64 507.353C530.311 509.636 528.411 511.406 525.94 512.663C523.469 513.92 520.536 514.549 517.141 514.549H505.827V506.096H515.147C516.765 506.096 518.116 505.815 519.2 505.251C520.298 504.688 521.129 503.9 521.692 502.889C522.256 501.863 522.537 500.671 522.537 499.313C522.537 497.94 522.256 496.755 521.692 495.758C521.129 494.747 520.298 493.967 519.2 493.417C518.102 492.868 516.751 492.594 515.147 492.594H509.859V528.333H499.13ZM538.944 528.333V495.043H549.239V501.111H549.586C550.193 498.915 551.182 497.283 552.555 496.213C553.928 495.13 555.524 494.588 557.345 494.588C557.836 494.588 558.342 494.624 558.862 494.696C559.382 494.754 559.866 494.848 560.314 494.978V504.189C559.808 504.016 559.144 503.878 558.32 503.777C557.511 503.676 556.789 503.626 556.153 503.626C554.896 503.626 553.762 503.907 552.75 504.471C551.753 505.02 550.966 505.793 550.388 506.79C549.824 507.772 549.542 508.928 549.542 510.258V528.333H538.944ZM578.444 528.962C574.947 528.962 571.942 528.247 569.428 526.816C566.928 525.371 564.999 523.363 563.641 520.791C562.297 518.205 561.625 515.206 561.625 511.796C561.625 508.372 562.297 505.374 563.641 502.802C564.999 500.216 566.928 498.207 569.428 496.777C571.942 495.332 574.947 494.609 578.444 494.609C581.941 494.609 584.939 495.332 587.438 496.777C589.952 498.207 591.881 500.216 593.225 502.802C594.583 505.374 595.262 508.372 595.262 511.796C595.262 515.206 594.583 518.205 593.225 520.791C591.881 523.363 589.952 525.371 587.438 526.816C584.939 528.247 581.941 528.962 578.444 528.962ZM578.509 520.964C579.78 520.964 580.857 520.574 581.738 519.794C582.62 519.014 583.292 517.93 583.754 516.543C584.231 515.156 584.469 513.552 584.469 511.731C584.469 509.882 584.231 508.264 583.754 506.877C583.292 505.49 582.62 504.406 581.738 503.626C580.857 502.845 579.78 502.455 578.509 502.455C577.194 502.455 576.082 502.845 575.171 503.626C574.275 504.406 573.589 505.49 573.112 506.877C572.65 508.264 572.419 509.882 572.419 511.731C572.419 513.552 572.65 515.156 573.112 516.543C573.589 517.93 574.275 519.014 575.171 519.794C576.082 520.574 577.194 520.964 578.509 520.964Z" fill="#F4D160"/>
</svg>
